<?xml version="1.0" standalone="no"?>
<!DOCTYPE svg PUBLIC "-//W3C//DTD SVG 20010904//EN"
 "http://www.w3.org/TR/2001/REC-SVG-20010904/DTD/svg10.dtd">
<svg version="1.0" xmlns="http://www.w3.org/2000/svg"
 width="1101.000000pt" height="930.000000pt" viewBox="0 0 1101.000000 930.000000"
 preserveAspectRatio="xMidYMid meet">

<g transform="translate(0.000000,930.000000) scale(0.100000,-0.100000)"
fill="#9CD8E8" stroke="none">
<path d="M5400 9285 c-132 -42 -199 -192 -145 -323 48 -119 200 -175 320 -118
61 28 98 70 122 136 l18 50 640 0 640 0 765 -765 765 -765 912 0 913 0 0 -45
0 -45 265 0 265 0 0 -255 0 -255 -265 0 -265 0 0 -45 0 -45 -1173 0 -1172 0
-505 505 -505 505 -882 0 -883 0 0 110 0 110 -480 0 -480 0 0 -255 0 -255 480
0 480 0 0 105 0 105 577 0 578 0 -360 -360 -360 -360 -797 0 -798 0 0 120 0
120 -450 0 -450 0 0 -255 0 -255 450 0 450 0 0 90 0 90 813 0 813 0 404 405
405 405 225 0 225 0 525 -525 525 -525 1172 0 1173 0 0 -45 0 -45 265 0 265 0
0 -225 0 -225 -265 0 -265 0 0 -45 0 -45 -917 0 -917 0 -346 -345 -345 -345
-1015 0 -1015 0 -275 -275 -275 -275 -390 0 -390 0 -355 -355 -355 -355 -49
25 c-68 35 -144 34 -215 -1 -124 -62 -166 -219 -91 -337 98 -154 329 -145 412
17 28 54 34 131 14 186 l-16 45 348 348 347 347 322 0 c178 0 323 -3 323 -7 0
-5 -357 -365 -792 -800 l-793 -793 -1347 0 -1347 0 -11 57 c-18 88 -58 162
-119 224 -251 250 -675 110 -732 -242 -37 -228 127 -450 361 -489 214 -36 430
107 485 320 l11 45 1370 3 1369 2 1115 1115 1115 1115 1015 0 1016 0 329 330
330 330 912 0 913 0 0 -45 0 -45 265 0 265 0 0 -225 0 -225 -265 0 -265 0 0
-45 0 -45 -160 0 -159 0 -17 33 c-52 103 -168 155 -276 123 -162 -47 -226
-229 -130 -369 37 -55 99 -88 177 -95 56 -4 72 -1 120 22 60 30 98 71 118 132
l14 39 156 3 157 3 0 -46 0 -45 265 0 265 0 0 -225 0 -225 -265 0 -265 0 0
-45 0 -45 -1477 0 -1478 0 -686 -686 -685 -685 -435 1 -434 1 -360 -361 -361
-361 -59 16 c-48 12 -70 13 -113 4 -220 -45 -258 -346 -56 -445 110 -54 244
-15 309 90 26 43 30 59 30 120 -1 54 -6 81 -24 115 l-23 44 343 343 344 344
375 0 375 0 -800 -799 -800 -800 -60 16 c-155 40 -296 -67 -296 -226 -1 -179
175 -293 337 -217 120 56 170 202 109 322 l-25 49 1498 1498 1497 1497 1477 0
1478 0 0 -45 0 -45 265 0 265 0 0 -220 0 -220 -265 0 -265 0 0 -45 0 -45
-1364 0 -1364 0 -1753 -1770 -1754 -1770 -1110 0 -1111 0 -13 35 c-39 110
-171 170 -293 133 -53 -16 -122 -78 -143 -130 -85 -207 127 -407 326 -307 52
26 107 91 120 144 l11 45 1127 0 1126 0 1734 1750 1733 1750 1364 0 1364 0 0
-45 0 -45 265 0 265 0 0 -215 0 -215 -265 0 -265 0 0 -55 0 -55 -640 0 -640 0
0 70 0 70 -335 0 -335 0 0 -195 0 -195 335 0 335 0 0 70 0 70 640 0 640 0 0
-40 0 -40 265 0 265 0 0 -35 0 -35 65 0 65 0 0 2515 0 2515 -65 0 -65 0 0 -80
0 -80 -265 0 -265 0 0 -45 0 -45 -908 0 -907 0 -755 755 -755 755 -661 0 -662
0 -6 25 c-9 35 -72 102 -116 125 -52 26 -126 33 -180 15z m-4864 -5930 c47
-19 110 -80 133 -129 15 -30 21 -62 21 -109 0 -149 -107 -256 -256 -257 -143
0 -254 111 -254 255 0 187 183 310 356 240z"/>
<path d="M4924 6531 c-101 -46 -158 -155 -136 -260 35 -164 202 -243 352 -166
43 22 97 91 109 141 l11 44 1320 0 1320 0 0 -170 0 -170 -339 0 -339 0 -6 23
c-11 47 -66 108 -119 133 -180 83 -378 -66 -339 -255 52 -249 396 -263 463
-18 l10 37 364 0 c200 0 370 3 379 6 14 5 16 36 16 244 0 208 -2 239 -16 244
-9 3 -625 6 -1369 6 l-1353 0 -6 23 c-3 13 -19 42 -36 66 -60 82 -191 115
-286 72z"/>
</g>
</svg>
