<?xml version="1.0" standalone="no"?>
<!DOCTYPE svg PUBLIC "-//W3C//DTD SVG 20010904//EN"
 "http://www.w3.org/TR/2001/REC-SVG-20010904/DTD/svg10.dtd">
<svg version="1.0" xmlns="http://www.w3.org/2000/svg"
 width="1378.000000pt" height="1152.000000pt" viewBox="0 0 1378.000000 1152.000000"
 preserveAspectRatio="xMidYMid meet">

<g transform="translate(0.000000,1152.000000) scale(0.100000,-0.100000)"
fill="#ffffff" stroke="none">
<path d="M11625 11502 c-95 -33 -158 -97 -190 -193 l-17 -49 -1392 0 -1392 0
-196 -197 c-107 -109 -1074 -1086 -2149 -2170 l-1953 -1973 -1688 0 -1688 0 0
60 0 60 -320 0 -320 0 0 250 0 250 320 0 320 0 0 70 0 70 790 0 790 0 0 -80 0
-80 420 0 420 0 0 240 0 240 -420 0 -420 0 0 -80 0 -80 -790 0 -790 0 0 50 0
50 -320 0 -320 0 0 40 0 40 -160 0 -160 0 0 -3120 0 -3120 160 0 160 0 0 90 0
90 320 0 320 0 0 60 0 60 1128 0 1127 0 930 -930 930 -930 815 0 815 0 29 -56
c122 -232 454 -211 547 35 29 76 22 170 -18 242 -124 228 -455 202 -545 -43
l-21 -58 -786 0 -786 0 -950 950 -950 950 -1132 0 -1133 0 0 60 0 60 -320 0
-320 0 0 300 0 300 320 0 320 0 0 60 0 60 1448 0 1447 0 630 -630 630 -630
1092 0 1093 0 0 -130 0 -130 600 0 600 0 0 320 0 320 -600 0 -600 0 0 -130 0
-130 -707 0 -708 0 440 440 440 440 987 0 988 0 0 -150 0 -150 560 0 560 0 0
320 0 320 -560 0 -560 0 0 -110 0 -110 -1013 0 -1012 0 -500 -500 -500 -500
-275 0 -275 0 -650 650 -650 650 -1452 0 -1453 0 0 60 0 60 -320 0 -320 0 0
260 0 260 320 0 320 0 0 60 0 60 1138 -1 1137 0 420 426 420 425 1261 0 1260
0 344 345 344 345 486 0 485 0 440 440 440 440 55 -28 c46 -23 67 -27 135 -27
69 1 87 5 134 30 185 102 215 356 57 491 -201 172 -514 15 -493 -248 3 -36 12
-80 21 -95 l15 -29 -427 -427 -427 -427 -400 0 -400 0 980 980 980 980 1665 0
1666 0 17 -72 c26 -110 70 -192 147 -268 298 -299 800 -157 905 255 84 329
-181 665 -525 665 -240 0 -469 -178 -522 -407 l-13 -53 -1695 0 -1695 0 -1380
-1380 -1380 -1380 -1261 0 -1260 0 -175 -177 c-96 -98 -277 -283 -404 -410
l-229 -233 -1133 0 -1133 0 0 60 0 60 -320 0 -320 0 0 260 0 260 320 0 320 0
0 60 0 60 198 0 197 0 24 -46 c74 -139 262 -194 402 -117 227 123 203 452 -40
544 -147 56 -327 -26 -379 -173 l-17 -48 -192 0 -193 0 0 60 0 60 -320 0 -320
0 0 260 0 260 320 0 320 0 0 60 0 60 1832 0 1833 0 850 850 851 851 539 -1
540 0 446 446 446 447 53 -18 c198 -66 404 98 387 308 -18 214 -237 338 -432
243 -148 -73 -208 -262 -129 -407 l28 -50 -425 -425 -424 -424 -455 0 -455 0
986 986 986 986 53 -17 c198 -66 404 98 387 308 -18 214 -237 338 -432 243
-148 -73 -208 -262 -129 -407 l28 -50 -1855 -1855 -1854 -1854 -1827 0 -1828
0 0 60 0 60 -320 0 -320 0 0 260 0 260 320 0 320 0 0 60 0 60 1693 0 1694 0
2169 2190 2169 2190 1370 0 1370 0 29 -56 c122 -232 454 -211 547 35 17 45 20
70 16 124 -16 196 -208 323 -392 259z m1749 -3576 c105 -51 160 -144 161 -266
0 -122 -56 -214 -168 -272 -66 -34 -183 -32 -259 5 -160 79 -215 278 -118 430
80 126 246 170 384 103z"/>
<path d="M5025 4502 c-95 -33 -158 -97 -190 -193 l-17 -49 -455 0 c-380 0
-457 -2 -469 -14 -21 -21 -21 -591 0 -612 13 -12 252 -14 1693 -14 l1678 0 29
-56 c122 -232 454 -211 547 35 29 76 22 170 -18 242 -124 228 -455 202 -545
-43 l-21 -58 -1628 0 -1629 0 0 200 0 200 413 0 412 0 29 -56 c122 -232 454
-211 547 35 17 45 20 70 16 124 -16 196 -208 323 -392 259z"/>
</g>
</svg>
