<?xml version="1.0" standalone="no"?>
<!DOCTYPE svg PUBLIC "-//W3C//DTD SVG 20010904//EN"
 "http://www.w3.org/TR/2001/REC-SVG-20010904/DTD/svg10.dtd">
<svg version="1.0" xmlns="http://www.w3.org/2000/svg"
 width="823.000000pt" height="684.000000pt" viewBox="0 0 823.000000 684.000000"
 preserveAspectRatio="xMidYMid meet">

<g transform="translate(0.000000,684.000000) scale(0.100000,-0.100000)"
fill="#9CD8E8" stroke="none">
<path d="M1185 6822 c-108 -50 -135 -179 -57 -265 74 -83 230 -57 270 44 l15
39 826 0 826 0 1310 -1310 1310 -1310 1013 0 1012 0 0 -35 0 -35 255 0 255 0
0 120 0 120 -254 0 -255 0 -3 -47 -3 -48 -1007 -3 -1007 -2 -953 957 c-524
527 -1108 1114 -1298 1305 l-345 346 -630 11 c-346 6 -727 14 -845 17 l-215 6
-20 31 c-42 65 -131 91 -200 59z"/>
<path d="M3134 5981 c-163 -99 -51 -352 132 -301 l46 13 569 -569 c313 -313
569 -572 569 -576 0 -5 -132 -8 -292 -8 l-293 1 -240 249 c-132 137 -239 255
-238 262 1 7 10 35 19 61 21 61 8 115 -40 163 -105 105 -277 34 -279 -116 -2
-104 95 -183 196 -160 33 7 35 5 291 -267 l258 -273 337 0 336 0 495 -495 495
-495 1105 -2 1105 -3 3 -37 3 -38 255 0 254 0 0 120 0 120 -255 0 -255 0 0
-45 0 -45 -1082 0 -1083 0 -1050 1058 c-578 581 -1070 1078 -1092 1103 l-42
45 15 43 c25 72 -4 152 -68 191 -44 27 -131 27 -174 1z"/>
<path d="M279 4890 c-103 -18 -200 -94 -244 -193 -56 -124 -33 -263 61 -366
127 -142 367 -138 495 7 37 43 79 133 79 172 0 20 13 20 1008 20 l1007 -1 597
-582 598 -582 -262 -3 -263 -2 -248 248 -248 248 15 29 c34 65 8 172 -50 210
-71 46 -155 37 -215 -24 -64 -64 -65 -153 -2 -222 43 -48 98 -65 156 -51 l40
11 206 -212 c114 -117 231 -238 260 -269 l54 -58 311 0 311 0 195 -195 195
-195 760 0 760 0 250 -250 250 -250 675 -2 675 -3 3 -47 3 -48 255 0 254 0 0
120 0 120 -254 0 -255 0 -3 -27 -3 -28 -665 -2 -665 -2 -248 265 -248 264
-772 0 -772 0 -815 815 -815 815 -1016 0 -1016 0 -22 59 c-40 110 -135 188
-255 210 -33 6 -62 10 -65 10 -3 -1 -27 -5 -52 -9z m131 -202 c54 -37 75 -73
75 -128 0 -77 -57 -139 -136 -147 -81 -7 -159 63 -159 145 0 113 131 190 220
130z"/>
<path d="M6270 4620 l0 -120 245 0 245 0 0 40 0 40 465 0 465 0 0 -40 0 -40
260 0 260 0 0 120 0 120 -260 0 -260 0 0 -45 0 -45 -465 0 -465 0 0 45 0 45
-245 0 -245 0 0 -120z"/>
<path d="M7179 3087 c-149 -78 -94 -307 73 -307 27 0 62 7 77 15 33 16 77 65
86 95 6 19 15 20 151 20 l144 0 0 -35 0 -35 255 0 255 0 0 120 0 120 -255 0
-255 0 0 -40 0 -40 -147 0 -148 0 -23 36 c-26 39 -89 73 -138 74 -17 0 -51
-10 -75 -23z"/>
<path d="M7708 1933 l-3 -38 -880 -3 -880 -2 -365 -374 -365 -374 -196 -1
-197 -1 -267 275 -267 275 -604 0 -604 0 0 80 0 80 -350 0 -350 0 0 -185 0
-185 350 0 350 0 0 80 0 80 584 0 584 0 223 -238 c123 -131 233 -248 243 -260
l19 -22 -411 0 -412 0 0 70 0 70 -350 0 -350 0 0 -180 0 -180 350 0 350 0 0
85 0 85 658 0 658 0 368 375 368 375 874 0 874 0 0 -45 0 -45 255 0 255 0 0
120 0 120 -254 0 -255 0 -3 -37z"/>
<path d="M7710 1425 l0 -55 -673 0 -672 0 -585 -585 -585 -585 -477 0 c-465 0
-478 1 -478 19 0 25 -44 78 -83 98 -17 8 -52 15 -79 15 -90 0 -158 -69 -158
-162 0 -155 181 -224 285 -109 19 22 35 48 35 59 0 20 7 20 493 20 l492 0 585
585 585 585 657 0 658 0 0 -35 0 -35 255 0 255 0 0 120 0 120 -255 0 -255 0 0
-55z"/>
</g>
</svg>
