<?xml version="1.0" standalone="no"?>
<!DOCTYPE svg PUBLIC "-//W3C//DTD SVG 20010904//EN"
 "http://www.w3.org/TR/2001/REC-SVG-20010904/DTD/svg10.dtd">
<svg version="1.0" xmlns="http://www.w3.org/2000/svg"
 width="1284.000000pt" height="1068.000000pt" viewBox="0 0 1284.000000 1068.000000"
 preserveAspectRatio="xMidYMid meet">

<g transform="translate(0.000000,1068.000000) scale(0.100000,-0.100000)"
fill="#ffffff" stroke="none">
<path d="M6387 10666 c-84 -31 -157 -106 -172 -177 l-7 -29 -761 0 -762 0
-910 -910 -910 -910 -1022 0 -1022 0 -3 58 -3 57 -407 3 -408 2 0 -195 0 -195
410 0 410 0 0 85 0 85 1048 0 1047 0 915 915 915 915 731 0 731 0 11 -38 c39
-130 188 -208 323 -169 232 68 255 380 37 493 -44 23 -143 28 -191 10z"/>
<path d="M6737 9283 c-4 -3 -7 -64 -7 -135 l0 -128 -1022 -1 -1023 -1 -575
-588 -575 -589 -1357 -1 -1358 0 0 75 0 75 -410 0 -410 0 0 -195 0 -195 410 0
410 0 0 60 0 60 1369 0 1369 0 577 590 578 590 298 0 c294 0 298 0 313 -22 8
-11 201 -207 427 -435 l412 -413 933 0 933 0 3 -117 3 -118 550 0 550 0 3 288
2 287 -555 0 -555 0 0 -120 0 -120 -913 0 -913 0 -355 377 c-195 207 -360 385
-367 395 -13 17 9 18 617 18 l631 0 0 -105 0 -105 555 0 555 0 -2 288 -3 287
-546 3 c-300 1 -549 -1 -552 -5z"/>
<path d="M0 6930 l0 -190 410 0 410 0 0 45 0 45 1034 0 1033 0 369 -391 c203
-216 377 -400 387 -410 17 -18 60 -19 1220 -19 l1202 0 1270 -1270 1270 -1270
1592 0 1591 0 21 -69 c65 -215 266 -363 496 -364 158 -2 295 58 398 173 218
242 169 613 -105 794 -153 102 -349 113 -525 30 -127 -60 -248 -217 -277 -357
l-13 -62 -1564 -2 -1564 -3 -930 906 c-511 499 -931 910 -933 915 -2 5 174 9
400 9 l403 0 388 -388 388 -388 -27 -58 c-78 -170 47 -366 233 -366 85 0 132
18 190 75 111 108 108 274 -7 379 -45 40 -73 54 -135 66 -36 8 -107 0 -145
-15 -11 -4 -135 117 -424 415 l-408 420 -482 0 -481 0 -300 300 -300 300
-1190 0 -1190 0 -400 400 -400 400 -1042 0 -1043 0 0 70 0 70 -410 0 -410 0 0
-190z m12452 -3068 c62 -31 121 -89 155 -154 24 -47 28 -64 28 -143 0 -71 -5
-100 -22 -137 -30 -66 -96 -133 -162 -165 -47 -24 -69 -28 -136 -28 -134 1
-232 59 -296 177 -31 58 -34 70 -34 148 0 66 5 96 22 132 39 85 124 160 213
189 50 16 182 5 232 -19z"/>
<path d="M1404 6326 c-58 -27 -120 -94 -136 -148 l-11 -38 -218 0 -218 0 -3
58 -3 57 -407 3 -408 2 0 -195 0 -195 410 0 410 0 0 60 0 60 223 0 222 -1 35
-52 c74 -109 223 -145 339 -82 149 81 185 275 76 403 -77 89 -205 117 -311 68z"/>
<path d="M0 5195 l0 -195 408 2 407 3 3 73 3 72 1682 -1 1682 0 1550 -1560
c853 -858 1618 -1631 1702 -1718 l152 -158 -19 -52 c-49 -127 1 -260 122 -326
44 -25 64 -29 123 -29 104 0 181 45 228 132 116 213 -84 453 -314 378 l-52
-18 -889 889 c-488 488 -888 891 -888 895 0 5 202 8 448 8 l448 0 165 -167
c177 -181 460 -472 548 -565 l55 -57 -30 -53 c-24 -44 -29 -64 -29 -123 0 -59
5 -79 30 -124 36 -66 85 -107 149 -126 96 -29 182 -11 255 52 65 55 86 103 86
198 0 69 -4 86 -27 127 -55 93 -153 146 -252 135 -28 -3 -58 -8 -66 -11 -11
-5 -136 122 -420 424 l-405 429 -530 1 -530 0 -770 770 -770 770 -1717 0
-1718 0 0 60 0 60 -410 0 -410 0 0 -195z"/>
<path d="M0 4335 l0 -195 410 0 410 0 0 70 0 70 1578 -1 1577 -2 861 -866
c473 -476 1380 -1389 2015 -2028 l1155 -1163 1319 -24 c958 -18 1320 -27 1323
-36 13 -37 74 -98 126 -124 110 -57 229 -34 315 59 152 165 32 434 -194 435
-107 0 -201 -62 -245 -162 l-21 -48 -1287 0 -1287 0 -2040 2040 -2040 2040
-1577 0 -1577 0 -3 63 -3 62 -407 3 -408 2 0 -195z"/>
<path d="M22 3468 l3 -193 407 -3 408 -2 0 75 0 75 720 0 719 0 3 -72 3 -73
383 -3 382 -2 0 195 0 195 -385 0 -385 0 0 -60 0 -60 -720 0 -720 0 0 60 0 60
-410 0 -410 0 2 -192z"/>
</g>
</svg>
